<?xml version="1.0" standalone="no"?>
<!DOCTYPE svg>
<svg version="1.0" xmlns="http://www.w3.org/2000/svg"
 width="73.000000pt" height="80.000000pt" viewBox="0 0 973.000000 1280.000000"
 preserveAspectRatio="xMidYMid meet">
<metadata>
Created by potrace 1.15, written by Peter Selinger 2001-2017
</metadata>
<g transform="translate(0.000000,1280.000000) scale(0.100000,-0.100000)"
fill="#000000" stroke="none">
<path d="M4642 12787 c-46 -14 -121 -84 -143 -132 -14 -31 -19 -65 -19 -152 0
-62 -4 -113 -8 -113 -5 0 -17 9 -27 20 -46 51 -37 51 -1071 48 l-961 -3 -49
-30 c-30 -19 -60 -49 -79 -79 -29 -48 -30 -54 -33 -189 -3 -111 0 -149 13
-183 20 -52 90 -119 142 -134 27 -8 316 -10 1010 -8 l971 3 46 32 46 33 0
-349 0 -349 -72 -34 c-132 -63 -237 -182 -278 -316 -19 -60 -20 -93 -20 -492
l0 -428 -192 -4 c-160 -4 -204 -9 -259 -26 -135 -44 -244 -139 -305 -267 -48
-100 -54 -148 -54 -426 l0 -248 -887 -4 c-978 -4 -935 -1 -1101 -68 -252 -100
-463 -320 -546 -569 -58 -175 -56 -124 -56 -1382 l0 -1158 -128 0 c-82 0 -149
-5 -187 -15 -172 -45 -311 -177 -371 -355 -16 -46 -19 -83 -18 -225 1 -93 6
-183 11 -200 l9 -30 1877 -3 1877 -2 11 27 c17 43 24 312 9 385 -30 157 -152
330 -277 394 -57 29 -60 29 -223 29 l-165 0 -3 633 -2 632 2805 0 2805 0 0
-689 c0 -656 1 -692 20 -752 48 -158 180 -291 338 -339 58 -18 93 -20 348 -20
l284 0 0 2710 0 2710 -263 0 c-349 0 -403 -14 -523 -134 -66 -66 -120 -155
-171 -281 l-33 -80 0 -607 0 -608 -1300 0 -1300 0 0 253 c0 281 -8 339 -62
439 -63 118 -170 209 -297 249 -55 18 -98 23 -258 27 l-193 4 0 422 c0 459 -3
487 -58 590 -43 82 -148 180 -236 222 l-76 36 0 351 c0 333 1 349 18 335 9 -9
36 -25 59 -37 42 -21 44 -21 1010 -21 918 0 970 1 1008 19 49 22 90 63 118
116 29 56 36 238 14 316 -20 65 -64 122 -120 152 l-42 22 -950 3 c-673 2 -963
-1 -995 -8 -25 -6 -59 -22 -77 -36 -17 -13 -34 -24 -37 -24 -3 0 -6 46 -6 101
0 122 -12 166 -59 220 -63 75 -168 106 -259 76z"/>
<path d="M1901 4420 c-98 -368 -144 -511 -238 -734 -140 -333 -288 -585 -605
-1029 -286 -401 -384 -569 -457 -780 -62 -178 -75 -269 -75 -512 0 -249 12
-341 69 -512 77 -232 204 -419 375 -554 181 -142 359 -222 603 -271 147 -29
440 -31 586 -4 632 117 971 562 971 1276 0 335 -87 585 -365 1050 -196 326
-301 513 -385 680 -212 423 -339 798 -439 1295 l-28 140 -12 -45z m-195 -956
c-74 -264 -126 -423 -166 -509 -15 -33 -79 -138 -143 -232 -63 -95 -117 -178
-119 -184 -3 -8 -20 -3 -51 15 -29 17 -44 32 -40 39 3 7 50 77 103 157 236
353 259 397 386 722 48 125 90 226 92 224 1 -2 -26 -107 -62 -232z m-675
-1180 c57 -13 70 -19 66 -33 -3 -9 -24 -70 -48 -136 l-43 -120 -4 -230 c-2
-126 1 -311 6 -410 6 -99 9 -181 8 -182 0 0 -53 -6 -116 -12 -63 -7 -132 -14
-152 -17 -35 -5 -37 -4 -48 33 -6 21 -13 115 -16 208 -9 250 23 402 141 665
48 109 123 250 131 250 3 0 37 -7 75 -16z"/>
</g>
</svg>
