<?xml version="1.0" standalone="no"?>
<!DOCTYPE svg PUBLIC "-//W3C//DTD SVG 20010904//EN"
 "http://www.w3.org/TR/2001/REC-SVG-20010904/DTD/svg10.dtd">
<svg version="1.0" xmlns="http://www.w3.org/2000/svg"
 width="88.000000pt" height="80.000000pt" viewBox="0 0 888.000000 1280.000000"
 preserveAspectRatio="xMidYMid meet">
<metadata>
Created by potrace 1.15, written by Peter Selinger 2001-2017
</metadata>
<g transform="translate(0.000000,1280.000000) scale(0.100000,-0.100000)"
fill="#000000" stroke="none">
<path d="M2720 12777 c-30 -12 -106 -53 -167 -90 -146 -88 -191 -107 -277
-118 -98 -13 -218 2 -411 51 -264 67 -422 55 -562 -41 -49 -34 -89 -97 -98
-155 -7 -42 16 -156 42 -207 23 -45 83 -107 126 -129 57 -28 117 -26 367 17
330 57 555 59 660 5 19 -10 51 -34 69 -54 19 -20 43 -36 53 -36 16 0 18 -12
18 -134 l0 -133 -31 -7 c-17 -3 -89 -38 -160 -77 -145 -80 -229 -102 -350 -92
-62 5 -69 4 -92 -19 -36 -37 -45 -115 -21 -200 4 -12 23 -21 63 -29 l57 -11
-4 -53 c-6 -78 2 -100 54 -136 l47 -32 -7 -176 c-7 -160 -10 -180 -31 -217
-37 -63 -111 -131 -203 -185 -79 -47 -86 -49 -155 -49 -100 1 -140 12 -206 59
-62 43 -139 67 -169 52 -9 -5 -206 -19 -437 -30 -231 -12 -522 -27 -647 -33
l-226 -12 -6 -101 c-3 -55 -8 -308 -11 -563 -5 -374 -4 -463 7 -466 7 -2 303
-27 658 -55 355 -29 666 -55 691 -58 39 -4 47 -2 51 14 8 29 118 82 220 104
156 34 233 30 585 -34 404 -74 476 -75 873 -11 465 74 771 104 878 85 128 -23
209 -77 251 -167 37 -77 61 -254 61 -442 0 -97 5 -182 11 -201 11 -32 22 -37
154 -69 34 -9 24 -10 -67 -11 l-108 -1 -5 -2147 c-2 -1182 -5 -2182 -7 -2223
-2 -64 2 -82 24 -125 71 -135 225 -198 370 -149 76 25 159 110 184 188 20 63
20 63 98 31 l38 -16 -60 -38 c-77 -50 -127 -117 -154 -204 -26 -88 -20 -148
27 -259 12 -28 -21 -22 -100 17 -45 23 -91 38 -128 42 -58 6 -65 11 -46 30 18
18 14 98 -7 134 -44 75 -158 102 -238 56 -108 -61 -104 -197 7 -258 l47 -25
-38 -36 -37 -37 -217 -7 c-120 -4 -218 -10 -218 -15 0 -4 18 -30 41 -59 22
-28 39 -53 37 -55 -1 -2 -104 75 -226 172 -123 96 -225 173 -226 171 -2 -2
-47 -64 -101 -138 -54 -74 -99 -137 -101 -138 -1 -2 -53 37 -114 87 -61 50
-114 91 -118 91 -4 -1 -44 -52 -90 -116 l-83 -115 102 -97 101 -97 -76 -112
-76 -111 65 -57 c36 -32 65 -61 65 -65 0 -5 -30 -45 -66 -90 l-67 -82 44 -43
c24 -23 194 -185 378 -361 184 -175 455 -436 601 -580 147 -143 294 -282 328
-307 198 -153 462 -273 747 -340 136 -32 369 -67 451 -67 l60 0 505 -490 c277
-269 508 -488 513 -487 26 8 975 814 973 827 -1 8 -135 103 -297 212 -605 406
-721 487 -1023 711 l-188 140 7 71 c4 39 8 73 10 75 2 2 171 -13 376 -34 397
-40 486 -42 609 -10 230 59 430 256 505 498 15 50 21 57 39 53 76 -18 1359
-236 1363 -231 4 3 -1 18 -10 32 -8 14 -206 347 -439 739 -343 578 -429 715
-449 721 -14 4 -189 -1 -390 -10 -438 -21 -918 -44 -1055 -51 l-100 -5 -70 56
c-253 203 -647 409 -1047 546 -17 6 -18 115 -18 2097 l0 2090 -167 1 -168 1
68 14 c78 15 243 58 302 78 71 24 75 50 50 329 -18 209 -47 408 -80 552 -33
147 -112 309 -191 395 -190 205 -671 400 -1184 480 -261 41 -313 61 -372 145
-53 76 -68 149 -68 324 l0 156 69 48 c74 52 81 66 81 163 0 40 1 42 39 48 21
3 44 12 50 20 34 40 19 216 -19 236 -10 6 -61 10 -112 10 -71 0 -115 6 -183
26 -115 33 -151 52 -227 120 -35 31 -71 59 -81 63 -16 6 -18 21 -18 141 0 122
1 135 18 139 10 2 40 23 66 47 75 67 126 79 332 78 150 0 195 -4 385 -38 118
-21 241 -38 272 -38 139 0 248 126 265 308 5 51 2 70 -16 108 -55 112 -192
176 -381 177 -78 0 -124 -7 -260 -41 -206 -50 -320 -64 -419 -50 -89 12 -129
29 -269 113 -155 93 -189 109 -251 113 -43 4 -69 -1 -111 -19z"/>
</g>
</svg>
