<?xml version="1.0" standalone="no"?>
<!DOCTYPE svg>
<svg version="1.0" xmlns="http://www.w3.org/2000/svg"
 width="72.000000pt" height="80.000000pt" viewBox="0 0 911.000000 1280.000000"
 preserveAspectRatio="xMidYMid meet">

<g transform="translate(0.000000,1280.000000) scale(0.100000,-0.100000)"
fill="#000000" stroke="none">
<path d="M7524 12784 c-83 -41 -255 -448 -674 -1599 -330 -905 -465 -1337
-485 -1542 -6 -60 -5 -71 15 -95 28 -37 61 -36 105 3 51 45 103 162 175 394
136 439 654 1874 864 2394 75 185 106 292 106 366 0 86 -36 114 -106 79z"/>
<path d="M5207 11818 c-13 -18 -43 -80 -65 -138 -155 -402 -767 -2232 -842
-2517 -43 -165 38 -197 117 -46 17 32 77 202 133 378 262 828 395 1207 595
1701 111 272 136 340 164 444 29 104 28 147 -6 182 -36 37 -66 36 -96 -4z"/>
<path d="M7399 10858 c-53 -56 -104 -184 -332 -838 -484 -1387 -817 -2404
-817 -2496 0 -12 8 -32 18 -44 14 -18 25 -21 45 -16 40 10 92 127 182 411 175
549 286 873 437 1275 350 930 548 1524 548 1644 0 51 -20 96 -42 96 -5 0 -23
-14 -39 -32z"/>
<path d="M5567 10437 c-85 -131 -536 -1499 -628 -1906 -21 -93 -22 -105 -8
-129 61 -110 163 79 359 673 35 105 96 278 138 385 158 412 239 693 249 864 6
96 5 99 -18 117 -34 26 -73 24 -92 -4z"/>
<path d="M8169 10205 c-36 -20 -65 -91 -204 -507 -305 -917 -790 -2520 -835
-2761 -21 -112 18 -163 92 -120 83 48 119 140 333 858 268 896 672 2365 687
2495 5 49 -23 62 -73 35z"/>
<path d="M6022 8577 c-43 -51 -353 -903 -653 -1797 -224 -665 -307 -936 -291
-952 15 -15 93 4 114 26 74 78 271 606 573 1536 303 932 366 1200 280 1200 -7
0 -17 -6 -23 -13z"/>
<path d="M4114 8525 c-64 -27 -71 -45 -216 -512 -358 -1156 -488 -1628 -488
-1775 0 -53 22 -108 44 -108 18 0 80 71 101 117 36 74 65 174 100 343 62 297
152 602 354 1200 72 212 144 433 161 491 37 131 48 220 29 235 -24 19 -55 22
-85 9z"/>
<path d="M4705 7954 c-25 -26 -35 -49 -233 -550 -275 -695 -363 -939 -365
-1017 -3 -81 90 -103 158 -37 55 53 82 118 200 468 62 185 152 448 199 585
111 320 131 402 127 505 -1 25 -34 62 -55 62 -8 0 -22 -7 -31 -16z"/>
<path d="M7092 6595 c-66 -47 -249 -371 -603 -1070 -425 -838 -483 -1019 -390
-1202 36 -73 125 -172 184 -206 67 -39 137 -51 209 -37 149 29 223 90 299 245
95 195 136 413 149 805 18 486 32 574 196 1190 37 139 43 232 18 268 -18 26
-32 28 -62 7z m-726 -1982 c30 -47 84 -114 120 -149 35 -35 64 -68 64 -73 0
-16 -56 -41 -90 -41 -92 0 -203 136 -204 250 -1 58 25 117 45 104 6 -3 35 -44
65 -91z"/>
<path d="M3958 5783 c-25 -43 -78 -143 -118 -223 -125 -250 -279 -496 -551
-878 -391 -548 -540 -891 -501 -1155 22 -150 120 -307 236 -376 71 -43 165
-53 244 -27 156 52 351 243 450 441 92 184 127 370 142 740 16 402 36 613 95
1010 59 395 75 545 57 545 -5 0 -29 -35 -54 -77z m-531 -1396 c-3 -18 -46
-125 -97 -238 -134 -298 -171 -399 -190 -517 -12 -73 -27 -102 -53 -102 -47 0
-44 113 8 295 81 280 202 523 288 575 44 27 50 25 44 -13z m1 -960 c5 -38 -29
-88 -79 -116 -39 -22 -43 -23 -55 -7 -21 29 6 99 53 136 38 30 77 24 81 -13z"/>
<path d="M5025 5450 c-26 -10 -89 -79 -110 -119 -110 -214 -655 -2144 -655
-2322 0 -81 67 -105 119 -41 44 53 81 156 141 392 98 385 455 1615 555 1909
43 129 45 168 9 181 -29 12 -32 12 -59 0z"/>
<path d="M1665 4849 c-43 -25 -75 -63 -75 -90 0 -93 263 -329 367 -329 37 0
98 -35 167 -98 68 -62 138 -94 158 -74 19 19 -7 81 -80 190 -131 195 -262 331
-371 384 -52 25 -137 34 -166 17z"/>
<path d="M161 4295 c-75 -21 -132 -55 -151 -87 -13 -25 -13 -31 0 -55 49 -87
283 -183 515 -212 215 -26 253 45 101 189 -154 147 -320 205 -465 165z"/>
<path d="M853 3940 c-74 -17 -81 -52 -22 -108 86 -83 266 -164 648 -291 442
-148 555 -206 829 -427 293 -236 641 -564 689 -651 l22 -39 -20 -42 c-12 -23
-44 -61 -71 -84 -127 -106 -91 -182 142 -295 232 -114 320 -203 320 -326 0
-115 -104 -152 -309 -113 -155 30 -254 19 -316 -36 -28 -24 -35 -38 -35 -65 0
-78 64 -138 227 -215 225 -105 292 -185 200 -236 -48 -26 -170 -20 -281 12
-48 15 -147 54 -220 87 -180 83 -278 111 -391 111 -114 1 -184 -19 -295 -82
-47 -27 -106 -54 -132 -61 -56 -15 -110 -7 -329 52 -236 63 -402 91 -644 109
-166 12 -310 2 -351 -25 -32 -21 -32 -84 -2 -145 38 -74 61 -78 332 -56 248
21 351 17 469 -15 236 -64 487 -86 1377 -124 646 -28 849 -55 1100 -149 178
-67 247 -80 420 -79 85 0 242 10 348 22 322 35 621 46 855 32 217 -13 300 -23
557 -71 215 -40 419 -51 473 -25 20 9 37 21 37 27 0 19 -72 37 -310 78 -632
108 -909 187 -918 263 -4 37 41 82 99 97 56 16 230 8 324 -15 39 -9 135 -37
215 -61 248 -77 513 -124 703 -124 107 0 255 -17 357 -42 103 -24 250 -92 307
-142 87 -76 105 -176 46 -259 -52 -74 -76 -82 -253 -82 -85 0 -243 4 -350 9
-221 10 -305 2 -490 -44 -233 -59 -553 -180 -588 -222 -11 -14 -10 -17 6 -23
35 -11 105 -7 187 9 98 19 416 36 693 36 305 1 668 18 735 34 199 49 362 269
360 486 -1 69 -22 121 -62 151 -24 17 -61 81 -61 104 0 28 418 37 715 15 180
-13 382 -34 525 -55 125 -18 192 -19 259 -4 61 13 131 61 131 89 0 12 -20 43
-45 69 -104 111 -168 118 -1011 103 -1041 -17 -1307 2 -1539 112 -170 80 -227
159 -233 327 -4 88 -2 103 21 153 47 102 112 121 496 141 330 18 408 37 452
108 63 103 -28 142 -376 157 -313 14 -443 36 -458 75 -15 37 81 124 293 265
215 143 294 218 277 263 -13 35 -134 48 -207 22 -103 -36 -304 -198 -615 -495
-418 -399 -584 -530 -670 -530 -40 0 -55 17 -62 68 -7 56 22 107 121 207 118
120 142 182 79 206 -130 49 -252 -56 -546 -475 -303 -430 -467 -609 -647 -705
-164 -88 -404 -93 -553 -14 -66 35 -247 214 -277 273 -32 62 -36 154 -15 336
25 226 8 285 -138 480 -330 443 -746 852 -1247 1225 -610 455 -1121 695 -1357
639z m4452 -2389 c8 -26 -2 -65 -33 -126 -62 -125 -202 -257 -407 -385 -38
-24 -81 -50 -95 -59 -33 -22 -28 -14 104 154 192 244 307 373 376 419 32 21
47 20 55 -3z"/>
<path d="M7675 3766 c-5 -2 -39 -12 -75 -22 -234 -64 -630 -268 -654 -336 -23
-65 55 -79 129 -23 60 46 160 85 375 147 295 84 450 175 370 218 -20 10 -127
22 -145 16z"/>
<path d="M1468 3090 c-61 -38 37 -127 292 -265 201 -108 350 -214 350 -247 0
-16 30 -8 40 11 33 62 -10 150 -127 261 -153 147 -328 240 -463 247 -43 2 -82
-1 -92 -7z"/>
<path d="M6390 3043 c-229 -93 -563 -364 -592 -480 -4 -13 -3 -25 1 -28 13 -7
75 30 181 109 127 95 268 174 395 221 117 43 142 56 173 85 48 45 11 120 -59
120 -19 0 -63 -12 -99 -27z"/>
<path d="M523 2795 c-56 -24 -53 -77 10 -132 63 -55 199 -96 527 -157 265 -50
440 -97 540 -146 110 -53 147 -53 113 -1 -72 111 -453 304 -778 395 -193 54
-347 70 -412 41z"/>
<path d="M1787 1950 c-73 -9 -96 -28 -79 -65 15 -34 146 -96 262 -126 150 -38
425 -97 433 -92 4 2 7 19 7 38 0 57 -83 121 -230 179 -145 57 -281 80 -393 66z"/>
<path d="M7 834 c-28 -28 23 -84 98 -107 86 -28 203 -37 552 -47 386 -10 516
-24 754 -81 249 -59 303 -64 456 -40 71 11 160 25 198 31 114 18 410 24 506
11 48 -6 126 -25 175 -41 48 -17 124 -37 169 -45 311 -58 1063 -61 1119 -5 15
15 -3 41 -45 62 -83 40 -209 48 -594 38 -175 -5 -238 7 -515 101 -307 103
-336 105 -755 47 -294 -40 -458 -41 -635 -4 -230 49 -384 53 -886 25 -223 -13
-409 -1 -481 31 -52 23 -106 34 -116 24z"/>
<path d="M2341 299 c-30 -5 -95 -20 -145 -34 -138 -38 -266 -48 -370 -30 -89
16 -121 12 -112 -12 3 -8 6 -16 6 -19 0 -2 15 -11 33 -21 29 -16 55 -18 262
-13 127 2 325 4 440 4 234 0 297 -10 555 -84 299 -85 435 -102 625 -77 161 22
421 35 830 42 476 8 705 26 705 55 0 17 -67 29 -215 40 -138 10 -257 30 -455
76 -134 32 -356 25 -665 -21 -232 -35 -281 -39 -455 -39 -211 -1 -194 -3 -587
83 -229 50 -361 65 -452 50z"/>
</g>
</svg>
